<svg width="80" height="29" viewBox="0 0 80 29" fill="none" xmlns="http://www.w3.org/2000/svg">
<path d="M50.2766 1.04829C48.1356 1.04829 47.114 1.74187 45.7249 4.31732C44.271 7.01311 42.8657 9.77883 42.8657 9.77883L39.6187 16.1709H39.6073H39.4674H39.4559L36.209 9.77883C36.209 9.77883 34.8031 7.01311 33.3496 4.31732C31.9603 1.74187 30.9388 1.04829 28.7981 1.04829C26.6565 1.04829 25.7856 1.04829 25.7856 1.04829V27.9031H32.1592V15.4306H32.3202L37.2498 24.3174H41.8245L46.7551 15.4306H46.9157V27.9031H53.289V1.04829C53.289 1.04829 52.4176 1.04829 50.2766 1.04829Z" fill="white"/>
<path d="M22.4063 19.8748C22.4063 21.0167 22.2336 22.078 21.8854 23.052C21.5374 24.0263 21.0231 24.8776 20.3431 25.6034C19.6626 26.3323 18.8198 26.8969 17.8175 27.3001C16.8151 27.7032 15.6599 27.9033 14.3483 27.9033H1.27258V22.3841H7.95378L13.0434 22.3794C14.088 22.3794 14.8755 22.1552 15.4095 21.649C15.9431 21.1424 16.2132 20.4715 16.2132 19.6392C16.2132 18.807 15.9659 18.107 15.4711 17.5362C14.9766 16.9651 14.1662 16.6781 13.0434 16.6781H12.7247V11.4171H12.7638C13.8862 11.4171 14.6935 11.201 15.1879 10.7719C15.6828 10.343 15.93 9.7913 15.93 9.11711C15.93 8.36245 15.7056 7.74631 15.2499 7.26566C14.7942 6.78526 13.9984 6.55148 12.7424 6.55148L7.95378 6.55269H1.27258V1.04682H13.8278C15.2728 1.04682 16.4995 1.25006 17.518 1.65326C18.5335 2.05647 19.3667 2.59505 20.0208 3.26924C20.678 3.94682 21.1499 4.7239 21.4461 5.60776C21.7388 6.49161 21.8854 7.42685 21.8854 8.41407C21.8854 8.88187 21.8139 9.37513 21.6674 9.89468C21.5176 10.4173 21.3063 10.9237 21.0231 11.4171C20.7431 11.9106 20.3886 12.3655 19.962 12.7816C19.5327 13.1946 19.0413 13.5332 18.4782 13.7944C19.1453 14.104 19.7278 14.5008 20.2226 14.9816C20.7171 15.462 21.1239 15.9814 21.4461 16.5428C21.765 17.1006 22.0058 17.6718 22.1654 18.2555C22.328 18.8393 22.4063 19.3812 22.4063 19.8748Z" fill="white"/>
<path d="M7.11846 6.55149H1.27185L1.27529 11.4158H7.11846V6.55149Z" fill="#656263"/>
<path d="M12.7244 11.4172V16.6782H7.12378V11.4172H12.7244Z" fill="#656263"/>
<path d="M7.12511 16.6772V11.4158H1.27527V16.6772H7.12511Z" fill="#F68712"/>
<path d="M1.27529 16.6771L1.27185 22.3831H7.11846V16.6775H7.12513V16.6771H1.27529Z" fill="#FBBC09"/>
<path d="M72.0579 21.6475C71.5234 22.154 70.7347 22.4073 69.6922 22.4073H63.6901V22.3833V16.6777H69.1361H69.6922C70.815 16.6777 71.6225 16.964 72.1177 17.5355C72.6121 18.1067 72.8595 18.8086 72.8595 19.6403C72.8595 20.4719 72.5918 21.141 72.0579 21.6475ZM63.6988 6.55161V6.54373H69.4116C70.6151 6.54373 71.4427 6.78442 71.8972 7.26458C72.3516 7.74644 72.5792 8.36282 72.5792 9.11639C72.5792 9.7924 72.3309 10.3439 71.8367 10.773C71.3422 11.2014 70.5348 11.4159 69.4116 11.4159H69.1361H63.6988V6.55161ZM78.8151 18.2568C78.6542 17.6721 78.4133 17.1005 78.0924 16.5412C77.772 15.9831 77.3646 15.4633 76.8708 14.9827C76.3751 14.5013 75.7938 14.105 75.1267 13.7938C75.6878 13.534 76.1812 13.196 76.6089 12.7801C77.0373 12.3649 77.3907 11.9101 77.6717 11.4159C77.9526 10.923 78.1665 10.4164 78.3136 9.89602C78.4598 9.37659 78.5341 8.88237 78.5341 8.41457C78.5341 7.42734 78.3867 6.49211 78.0924 5.6085C77.7987 4.72561 77.3245 3.94623 76.67 3.26961C76.0143 2.59457 75.18 2.05527 74.1645 1.65267C73.148 1.24983 71.9193 1.04829 70.4764 1.04829H57.8451V27.9031H70.9971C72.3058 27.9031 73.4626 27.7024 74.465 27.2986C75.4668 26.8965 76.3092 26.3313 76.9902 25.6033C77.6717 24.8769 78.1854 24.0248 78.5341 23.0504C78.8813 22.0765 79.0548 21.0178 79.0548 19.8744C79.0548 19.3807 78.9752 18.8408 78.8151 18.2568Z" fill="white"/>
</svg>
